<svg width="37" height="37" viewBox="0 0 37 37" fill="none" xmlns="http://www.w3.org/2000/svg">
<g clip-path="url(#clip0)">
<path d="M13.5667 23.8151L15.446 13.2437H18.3825L16.5619 23.8151H13.5667Z" fill="#3C58BF"/>
<path d="M13.5667 23.8151L15.9746 13.2437H18.3825L16.5619 23.8151H13.5667Z" fill="#293688"/>
<path d="M27.192 13.3612C26.6047 13.1263 25.665 12.8914 24.4904 12.8914C21.5539 12.8914 19.4396 14.3596 19.4396 16.4739C19.4396 18.0596 20.9079 18.8818 22.0825 19.4104C23.2571 19.939 23.6095 20.2914 23.6095 20.7612C23.6095 21.466 22.6698 21.8183 21.8476 21.8183C20.673 21.8183 20.0269 21.6422 19.0285 21.231L18.6174 21.0548L18.2063 23.4628C18.9111 23.7564 20.2031 24.0501 21.5539 24.0501C24.6666 24.0501 26.7222 22.5818 26.7222 20.3501C26.7222 19.1168 25.9587 18.1771 24.1968 17.4136C23.1396 16.885 22.4936 16.5914 22.4936 16.0628C22.4936 15.5929 23.0222 15.1231 24.1968 15.1231C25.1952 15.1231 25.9 15.2993 26.4285 15.5342L26.7222 15.6517L27.192 13.3612Z" fill="#3C58BF"/>
<path d="M27.192 13.3612C26.6047 13.1263 25.665 12.8914 24.4904 12.8914C21.5539 12.8914 19.9682 14.3596 19.9682 16.4739C19.9682 18.0596 20.9079 18.8818 22.0825 19.4104C23.2571 19.939 23.6095 20.2914 23.6095 20.7612C23.6095 21.466 22.6698 21.8183 21.8476 21.8183C20.673 21.8183 20.0269 21.6422 19.0285 21.231L18.6174 21.0548L18.2063 23.4628C18.9111 23.7564 20.2031 24.0501 21.5539 24.0501C24.6666 24.0501 26.7222 22.5818 26.7222 20.3501C26.7222 19.1168 25.9587 18.1771 24.1968 17.4136C23.1396 16.885 22.4936 16.5914 22.4936 16.0628C22.4936 15.5929 23.0222 15.1231 24.1968 15.1231C25.1952 15.1231 25.9 15.2993 26.4285 15.5342L26.7222 15.6517L27.192 13.3612Z" fill="#293688"/>
<path d="M32.2428 13.2437C31.538 13.2437 31.0094 13.3024 30.7158 14.0071L26.311 23.8151H29.4825L30.0698 22.0532H33.8285L34.1809 23.8151H36.9999L34.5333 13.2437H32.2428ZM30.892 20.2913C31.0682 19.7627 32.0666 17.1786 32.0666 17.1786C32.0666 17.1786 32.3015 16.5325 32.4777 16.1214L32.6539 17.1198C32.6539 17.1198 33.2412 19.7627 33.3587 20.35H30.892V20.2913Z" fill="#3C58BF"/>
<path d="M32.9475 13.2437C32.2428 13.2437 31.7142 13.3024 31.4206 14.0071L26.311 23.8151H29.4825L30.0698 22.0532H33.8285L34.1809 23.8151H36.9999L34.5333 13.2437H32.9475ZM30.892 20.2913C31.1269 19.704 32.0666 17.1786 32.0666 17.1786C32.0666 17.1786 32.3015 16.5325 32.4777 16.1214L32.6539 17.1198C32.6539 17.1198 33.2412 19.7627 33.3587 20.35H30.892V20.2913Z" fill="#293688"/>
<path d="M8.16355 20.6436L7.8699 19.1166C7.34133 17.3547 5.63815 15.4167 3.75879 14.477L6.40165 23.8738H9.57307L14.3302 13.3024H11.1588L8.16355 20.6436Z" fill="#3C58BF"/>
<path d="M8.16355 20.6436L7.8699 19.1166C7.34133 17.3547 5.63815 15.4167 3.75879 14.477L6.40165 23.8738H9.57307L14.3302 13.3024H11.7461L8.16355 20.6436Z" fill="#293688"/>
<path d="M0 13.2437L0.528571 13.3611C4.2873 14.2421 6.87143 16.4738 7.86984 19.1167L6.8127 14.1246C6.63651 13.4198 6.10794 13.2437 5.4619 13.2437H0Z" fill="#FFBC00"/>
<path d="M0 13.2437C3.75873 14.1246 6.87143 16.4151 7.86984 19.0579L6.87143 14.8881C6.69524 14.1833 6.10794 13.7722 5.4619 13.7722L0 13.2437Z" fill="#F7981D"/>
<path d="M0 13.2437C3.75873 14.1246 6.87143 16.4151 7.86984 19.0579L7.16508 16.7675C6.98889 16.0627 6.75397 15.3579 5.93175 15.0643L0 13.2437Z" fill="#ED7C00"/>
<path d="M11.0999 20.2912L9.1031 18.2944L8.16341 20.5261L7.92849 19.0579C7.39992 17.296 5.69675 15.3579 3.81738 14.4182L6.46024 23.815H9.63167L11.0999 20.2912Z" fill="#051244"/>
<path d="M16.5619 23.8151L14.0365 21.231L13.5667 23.8151H16.5619Z" fill="#051244"/>
<path d="M23.3158 20.1737C23.5507 20.4086 23.6682 20.5848 23.6095 20.8197C23.6095 21.5245 22.6698 21.8769 21.8476 21.8769C20.673 21.8769 20.0269 21.7007 19.0285 21.2896L18.6174 21.1134L18.2063 23.5213C18.9111 23.815 20.2031 24.1086 21.5539 24.1086C23.4333 24.1086 24.9603 23.5801 25.8412 22.6404L23.3158 20.1737Z" fill="#051244"/>
<path d="M27 23.6936H29.7603L30.3476 21.9317H34.1063L34.4587 23.6936H37.2778L36.2794 19.4063L32.7556 16L32.9317 16.9397C32.9317 16.9397 33.519 19.5825 33.6365 20.1698H31.1698C31.4048 19.5825 32.3444 17.0571 32.3444 17.0571C32.3444 17.0571 32.5794 16.4111 32.7556 16" fill="#051244"/>
</g>
<defs>
<clipPath id="clip0">
<rect width="37" height="37" fill="white"/>
</clipPath>
</defs>
</svg>
