<svg width="48" height="41" viewBox="0 0 48 41" fill="none" xmlns="http://www.w3.org/2000/svg">
<path d="M23.92 29.8434C23.92 32.9367 22.9067 35.4434 20.88 37.3634C18.8533 39.1767 16.2933 40.0834 13.2 40.0834C9.46667 40.0834 6.37333 38.8567 3.92 36.4034C1.57333 33.95 0.4 30.43 0.4 25.8434C0.4 20.9367 1.78667 16.1367 4.56 11.4434C7.44 6.64336 11.44 2.85669 16.56 0.0833588L20.24 5.68336C17.4667 7.60336 15.2267 9.7367 13.52 12.0834C11.92 14.43 10.8533 17.15 10.32 20.2434C11.28 19.8167 12.4 19.6034 13.68 19.6034C16.6667 19.6034 19.12 20.5634 21.04 22.4834C22.96 24.4034 23.92 26.8567 23.92 29.8434ZM47.37 29.8434C47.37 32.9367 46.3567 35.4434 44.33 37.3634C42.3033 39.1767 39.7433 40.0834 36.65 40.0834C32.9167 40.0834 29.8233 38.8567 27.37 36.4034C25.0233 33.95 23.85 30.43 23.85 25.8434C23.85 20.9367 25.2367 16.1367 28.01 11.4434C30.89 6.64336 34.89 2.85669 40.01 0.0833588L43.69 5.68336C40.9167 7.60336 38.6767 9.7367 36.97 12.0834C35.37 14.43 34.3033 17.15 33.77 20.2434C34.73 19.8167 35.85 19.6034 37.13 19.6034C40.1167 19.6034 42.57 20.5634 44.49 22.4834C46.41 24.4034 47.37 26.8567 47.37 29.8434Z" fill="#CCCCCC"/>
</svg>
