<svg width="32" height="32" viewBox="0 0 32 32" fill="none" xmlns="http://www.w3.org/2000/svg">
<path d="M31.9998 15.9999C31.9998 21.2824 27.7331 25.5999 22.3998 25.5999C17.1173 25.5999 12.7998 21.2824 12.7998 15.9999C12.7998 10.7174 17.0665 6.3999 22.349 6.3999C27.7331 6.3999 31.9998 10.7174 31.9998 15.9999Z" fill="#FFB600"/>
<path d="M22.3998 6.3999C27.6823 6.3999 31.9998 10.7174 31.9998 15.9999C31.9998 21.2824 27.7331 25.5999 22.3998 25.5999C17.1173 25.5999 12.7998 21.2824 12.7998 15.9999" fill="#F7981D"/>
<path d="M22.3999 6.3999C27.6824 6.3999 31.9999 10.7174 31.9999 15.9999C31.9999 21.2824 27.7332 25.5999 22.3999 25.5999" fill="#FF8500"/>
<path d="M9.49841 6.3999C4.26667 6.4507 0 10.7174 0 15.9999C0 21.2824 4.26667 25.5999 9.6 25.5999C12.0889 25.5999 14.3238 24.6348 16.0508 23.111C16.4063 22.8063 16.7111 22.4507 17.0159 22.0951H15.0349C14.781 21.7904 14.527 21.4348 14.3238 21.1301H17.727C17.9302 20.8253 18.1333 20.4697 18.2857 20.1142H13.7651C13.6127 19.8094 13.4603 19.4539 13.3587 19.0983H18.6413C18.946 18.1332 19.1492 17.1174 19.1492 16.0507C19.1492 15.3396 19.0476 14.6793 18.946 14.0189H13.054C13.1048 13.6634 13.2063 13.3586 13.3079 13.0031H18.5905C18.4889 12.6475 18.3365 12.292 18.1841 11.9872H13.7143C13.8667 11.6316 14.0698 11.3269 14.273 10.9713H17.6762C17.473 10.6158 17.219 10.2602 16.9143 9.95546H15.0349C15.3397 9.5999 15.6444 9.29514 16 8.99038C14.3238 7.41578 12.0381 6.50149 9.54921 6.50149C9.54921 6.3999 9.54921 6.3999 9.49841 6.3999Z" fill="#FF5050"/>
<path d="M0 16C0 21.2825 4.26667 25.6 9.6 25.6C12.0889 25.6 14.3238 24.6349 16.0508 23.1111C16.4063 22.8063 16.7111 22.4508 17.0159 22.0952H15.0349C14.781 21.7905 14.527 21.4349 14.3238 21.1302H17.727C17.9302 20.8254 18.1333 20.4698 18.2857 20.1143H13.7651C13.6127 19.8095 13.4603 19.454 13.3587 19.0984H18.6413C18.946 18.1333 19.1492 17.1175 19.1492 16.0508C19.1492 15.3397 19.0476 14.6794 18.946 14.019H13.054C13.1048 13.6635 13.2063 13.3587 13.3079 13.0032H18.5905C18.4889 12.6476 18.3365 12.2921 18.1841 11.9873H13.7143C13.8667 11.6317 14.0698 11.327 14.273 10.9714H17.6762C17.473 10.6159 17.219 10.2603 16.9143 9.95555H15.0349C15.3397 9.6 15.6444 9.29524 16 8.99048C14.3238 7.41587 12.0381 6.50159 9.54921 6.50159H9.49841" fill="#E52836"/>
<path d="M9.59988 25.6C12.0888 25.6 14.3237 24.6349 16.0507 23.1111C16.4062 22.8063 16.711 22.4508 17.0158 22.0952H15.0348C14.7808 21.7905 14.5269 21.4349 14.3237 21.1302H17.7269C17.93 20.8254 18.1332 20.4698 18.2856 20.1143H13.765C13.6126 19.8095 13.4602 19.454 13.3586 19.0984H18.6411C18.9459 18.1333 19.1491 17.1175 19.1491 16.0508C19.1491 15.3397 19.0475 14.6794 18.9459 14.019H13.0538C13.1046 13.6635 13.2062 13.3587 13.3078 13.0032H18.5904C18.4888 12.6476 18.3364 12.2921 18.184 11.9873H13.7142C13.8665 11.6317 14.0697 11.327 14.2729 10.9714H17.6761C17.4729 10.6159 17.2189 10.2603 16.9142 9.95555H15.0348C15.3396 9.6 15.6443 9.29524 15.9999 8.99048C14.3237 7.41587 12.038 6.50159 9.54908 6.50159H9.49829" fill="#CB2026"/>
<path d="M13.0033 18.4381L13.1557 17.5746C13.1049 17.5746 13.0033 17.6254 12.9017 17.6254C12.5461 17.6254 12.4954 17.4222 12.5461 17.3206L12.8509 15.5429H13.4096L13.562 14.5778H13.0541L13.1557 13.9683H12.1398C12.1398 13.9683 11.5303 17.3206 11.5303 17.727C11.5303 18.3365 11.8858 18.5905 12.343 18.5905C12.6477 18.5905 12.9017 18.4889 13.0033 18.4381Z" fill="white"/>
<path d="M13.3586 16.8128C13.3586 18.235 14.3237 18.5906 15.1364 18.5906C15.8983 18.5906 16.2031 18.4382 16.2031 18.4382L16.4063 17.4731C16.4063 17.4731 15.8475 17.7271 15.3396 17.7271C14.2221 17.7271 14.4253 16.9144 14.4253 16.9144H16.5078C16.5078 16.9144 16.6602 16.254 16.6602 16.0001C16.6602 15.3398 16.3047 14.5271 15.1872 14.5271C14.1205 14.4255 13.3586 15.5429 13.3586 16.8128ZM15.1364 15.3398C15.6952 15.3398 15.5936 16.0001 15.5936 16.0509H14.4761C14.4761 16.0001 14.5777 15.3398 15.1364 15.3398Z" fill="white"/>
<path d="M21.5874 18.4381L21.7905 17.3206C21.7905 17.3206 21.2826 17.5746 20.927 17.5746C20.2159 17.5746 19.9112 17.0159 19.9112 16.4063C19.9112 15.1873 20.5207 14.527 21.2318 14.527C21.7397 14.527 22.1461 14.8317 22.1461 14.8317L22.2985 13.7651C22.2985 13.7651 21.6889 13.5111 21.1302 13.5111C19.962 13.5111 18.7937 14.527 18.7937 16.4571C18.7937 17.727 19.4032 18.5905 20.6223 18.5905C21.0286 18.5905 21.5874 18.4381 21.5874 18.4381Z" fill="white"/>
<path d="M7.41599 14.4254C6.70488 14.4254 6.19695 14.6286 6.19695 14.6286L6.04457 15.4921C6.04457 15.4921 6.50171 15.2889 7.16203 15.2889C7.51758 15.2889 7.82234 15.3397 7.82234 15.6445C7.82234 15.8476 7.77155 15.8984 7.77155 15.8984C7.77155 15.8984 7.46679 15.8984 7.31441 15.8984C6.45092 15.8984 5.48584 16.254 5.48584 17.4222C5.48584 18.3365 6.09536 18.5397 6.45092 18.5397C7.16203 18.5397 7.46679 18.0825 7.51758 18.0825L7.46679 18.4889H8.38107L8.78742 15.6953C8.78742 14.4762 7.77155 14.4254 7.41599 14.4254ZM7.61917 16.7111C7.61917 16.8635 7.51758 17.6762 6.90806 17.6762C6.6033 17.6762 6.50171 17.4222 6.50171 17.2698C6.50171 17.0159 6.65409 16.6603 7.41599 16.6603C7.56838 16.7111 7.61917 16.7111 7.61917 16.7111Z" fill="white"/>
<path d="M9.75224 18.5397C10.0062 18.5397 11.276 18.5905 11.276 17.2191C11.276 15.9492 10.057 16.2032 10.057 15.6953C10.057 15.4413 10.2602 15.3397 10.6157 15.3397C10.7681 15.3397 11.3268 15.3905 11.3268 15.3905L11.4792 14.4762C11.4792 14.4762 11.1237 14.3746 10.5141 14.3746C9.75224 14.3746 8.99033 14.6794 8.99033 15.6953C8.99033 16.8635 10.2602 16.7619 10.2602 17.2191C10.2602 17.5238 9.90462 17.5746 9.65065 17.5746C9.19351 17.5746 8.73637 17.4222 8.73637 17.4222L8.58398 18.3365C8.63478 18.4381 8.88875 18.5397 9.75224 18.5397Z" fill="white"/>
<path d="M30.019 13.6127L29.8158 14.9841C29.8158 14.9841 29.4095 14.4762 28.8508 14.4762C27.9365 14.4762 27.1238 15.5936 27.1238 16.9143C27.1238 17.727 27.5301 18.5904 28.3936 18.5904C29.0031 18.5904 29.3587 18.1841 29.3587 18.1841L29.3079 18.5397H30.3238L31.0857 13.6635L30.019 13.6127ZM29.5619 16.3047C29.5619 16.8635 29.3079 17.5746 28.7492 17.5746C28.3936 17.5746 28.1904 17.2698 28.1904 16.7619C28.1904 15.9492 28.546 15.4412 29.0031 15.4412C29.3587 15.4412 29.5619 15.6952 29.5619 16.3047Z" fill="white"/>
<path d="M1.87939 18.4889L2.48891 14.8317L2.5905 18.4889H3.30161L4.62224 14.8317L4.06351 18.4889H5.13018L5.94288 13.6127H4.26669L3.25081 16.6095L3.20002 13.6127H1.72701L0.914307 18.4889H1.87939Z" fill="white"/>
<path d="M17.6253 18.4889C17.93 16.8127 17.9808 15.4413 18.6919 15.6952C18.7935 15.0349 18.9459 14.7809 19.0475 14.527C19.0475 14.527 18.9967 14.527 18.8443 14.527C18.3872 14.527 18.0316 15.1365 18.0316 15.1365L18.1332 14.5778H17.1681L16.5078 18.5397H17.6253V18.4889Z" fill="white"/>
<path d="M23.9238 14.4254C23.2127 14.4254 22.7048 14.6286 22.7048 14.6286L22.5524 15.4921C22.5524 15.4921 23.0095 15.2889 23.6698 15.2889C24.0254 15.2889 24.3302 15.3397 24.3302 15.6445C24.3302 15.8476 24.2794 15.8984 24.2794 15.8984C24.2794 15.8984 23.9746 15.8984 23.8222 15.8984C22.9587 15.8984 21.9937 16.254 21.9937 17.4222C21.9937 18.3365 22.6032 18.5397 22.9587 18.5397C23.6698 18.5397 23.9746 18.0825 24.0254 18.0825L23.9746 18.4889H24.8889L25.2952 15.6953C25.346 14.4762 24.2794 14.4254 23.9238 14.4254ZM24.1778 16.7111C24.1778 16.8635 24.0762 17.6762 23.4667 17.6762C23.1619 17.6762 23.0603 17.4222 23.0603 17.2698C23.0603 17.0159 23.2127 16.6603 23.9746 16.6603C24.127 16.7111 24.127 16.7111 24.1778 16.7111Z" fill="white"/>
<path d="M26.1587 18.4889C26.4635 16.8127 26.5143 15.4413 27.2254 15.6952C27.327 15.0349 27.4794 14.7809 27.5809 14.527C27.5809 14.527 27.5301 14.527 27.3778 14.527C26.9206 14.527 26.5651 15.1365 26.5651 15.1365L26.6667 14.5778H25.7016L25.0413 18.5397H26.1587V18.4889Z" fill="white"/>
<path d="M11.4285 17.727C11.4285 18.3365 11.784 18.5905 12.2412 18.5905C12.5967 18.5905 12.9015 18.4889 13.0031 18.4381L13.1555 17.5746C13.1047 17.5746 13.0031 17.6254 12.9015 17.6254C12.5459 17.6254 12.4951 17.4222 12.5459 17.3206L12.8507 15.5429H13.4094L13.5618 14.5778H13.0539L13.1555 13.9683" fill="#DCE5E5"/>
<path d="M13.8667 16.8128C13.8667 18.235 14.3238 18.5906 15.1365 18.5906C15.8984 18.5906 16.2032 18.4382 16.2032 18.4382L16.4064 17.4731C16.4064 17.4731 15.8477 17.7271 15.3397 17.7271C14.2223 17.7271 14.4254 16.9144 14.4254 16.9144H16.508C16.508 16.9144 16.6603 16.254 16.6603 16.0001C16.6603 15.3398 16.3048 14.5271 15.1873 14.5271C14.1207 14.4255 13.8667 15.5429 13.8667 16.8128ZM15.1365 15.3398C15.6953 15.3398 15.7969 16.0001 15.7969 16.0509H14.4762C14.4762 16.0001 14.5778 15.3398 15.1365 15.3398Z" fill="#DCE5E5"/>
<path d="M21.5872 18.4381L21.7904 17.3206C21.7904 17.3206 21.2825 17.5746 20.9269 17.5746C20.2158 17.5746 19.911 17.0159 19.911 16.4063C19.911 15.1873 20.5206 14.527 21.2317 14.527C21.7396 14.527 22.146 14.8317 22.146 14.8317L22.2983 13.7651C22.2983 13.7651 21.6888 13.5111 21.1301 13.5111C19.9618 13.5111 19.3015 14.527 19.3015 16.4571C19.3015 17.727 19.4031 18.5905 20.6221 18.5905C21.0285 18.5905 21.5872 18.4381 21.5872 18.4381Z" fill="#DCE5E5"/>
<path d="M6.04457 15.5428C6.04457 15.5428 6.50171 15.3397 7.16203 15.3397C7.51758 15.3397 7.82234 15.3905 7.82234 15.6952C7.82234 15.8984 7.77155 15.9492 7.77155 15.9492C7.77155 15.9492 7.46679 15.9492 7.31441 15.9492C6.45092 15.9492 5.48584 16.3047 5.48584 17.473C5.48584 18.3873 6.09536 18.5905 6.45092 18.5905C7.16203 18.5905 7.46679 18.1333 7.51758 18.1333L7.46679 18.5397H8.38107L8.78742 15.746C8.78742 14.5778 7.77155 14.527 7.3652 14.527L6.04457 15.5428ZM8.1271 16.7111C8.1271 16.8635 7.51758 17.6762 6.90806 17.6762C6.6033 17.6762 6.50171 17.4222 6.50171 17.2698C6.50171 17.0159 6.65409 16.6603 7.41599 16.6603C7.56838 16.7111 8.1271 16.7111 8.1271 16.7111Z" fill="#DCE5E5"/>
<path d="M8.63477 18.4381C8.63477 18.4381 8.93953 18.5397 9.80302 18.5397C10.057 18.5397 11.3268 18.5905 11.3268 17.2191C11.3268 15.9492 10.1078 16.2032 10.1078 15.6953C10.1078 15.4413 10.311 15.3397 10.6665 15.3397C10.8189 15.3397 11.3776 15.3905 11.3776 15.3905L11.53 14.4762C11.53 14.4762 11.1744 14.3746 10.5649 14.3746C9.80302 14.3746 9.54905 14.6794 9.54905 15.6953C9.54905 16.8635 10.311 16.7619 10.311 17.2191C10.311 17.5238 9.9554 17.5746 9.70143 17.5746" fill="#DCE5E5"/>
<path d="M29.816 14.9841C29.816 14.9841 29.4096 14.4761 28.8509 14.4761C27.9366 14.4761 27.6319 15.5936 27.6319 16.9142C27.6319 17.7269 27.5303 18.5904 28.3938 18.5904C29.0033 18.5904 29.3588 18.1841 29.3588 18.1841L29.3081 18.5396H30.3239L31.0858 13.6635L29.816 14.9841ZM29.7652 16.3047C29.7652 16.8634 29.3081 17.5746 28.7493 17.5746C28.3938 17.5746 28.1906 17.2698 28.1906 16.7619C28.1906 15.9492 28.5461 15.4412 29.0033 15.4412C29.3588 15.4412 29.7652 15.6952 29.7652 16.3047Z" fill="#DCE5E5"/>
<path d="M1.87939 18.4889L2.48891 14.8317L2.5905 18.4889H3.30161L4.62224 14.8317L4.06351 18.4889H5.13018L5.94288 13.6127H4.67304L3.25081 16.6095L3.20002 13.6127H2.64129L0.914307 18.4889H1.87939Z" fill="#DCE5E5"/>
<path d="M16.5588 18.4889H17.6255C17.9303 16.8127 17.9811 15.4413 18.6922 15.6952C18.7938 15.0349 18.9461 14.7809 19.0477 14.527C19.0477 14.527 18.9969 14.527 18.8446 14.527C18.3874 14.527 18.0319 15.1365 18.0319 15.1365L18.1334 14.5778" fill="#DCE5E5"/>
<path d="M22.5524 15.5428C22.5524 15.5428 23.0095 15.3397 23.6698 15.3397C24.0254 15.3397 24.3302 15.3905 24.3302 15.6952C24.3302 15.8984 24.2794 15.9492 24.2794 15.9492C24.2794 15.9492 23.9746 15.9492 23.8222 15.9492C22.9587 15.9492 21.9937 16.3047 21.9937 17.473C21.9937 18.3873 22.6032 18.5905 22.9587 18.5905C23.6698 18.5905 23.9746 18.1333 24.0254 18.1333L23.9746 18.5397H24.8889L25.2952 15.746C25.2952 14.5778 24.2794 14.527 23.873 14.527L22.5524 15.5428ZM24.6349 16.7111C24.6349 16.8635 24.0254 17.6762 23.4159 17.6762C23.1111 17.6762 23.0095 17.4222 23.0095 17.2698C23.0095 17.0159 23.1619 16.6603 23.9238 16.6603C24.127 16.7111 24.6349 16.7111 24.6349 16.7111Z" fill="#DCE5E5"/>
<path d="M25.092 18.4889H26.1587C26.4635 16.8127 26.5143 15.4413 27.2254 15.6952C27.327 15.0349 27.4793 14.7809 27.5809 14.527C27.5809 14.527 27.5301 14.527 27.3778 14.527C26.9206 14.527 26.5651 15.1365 26.5651 15.1365L26.6666 14.5778" fill="#DCE5E5"/>
</svg>
